<?xml version="1.0" encoding="utf-8"?>
<!-- Generator: Adobe Illustrator 26.0.3, SVG Export Plug-In . SVG Version: 6.00 Build 0)  -->
<svg version="1.1" id="Layer_1" xmlns="http://www.w3.org/2000/svg" xmlns:xlink="http://www.w3.org/1999/xlink" x="0px" y="0px"
	 viewBox="0 0 1000 1000" style="enable-background:new 0 0 1000 1000;" xml:space="preserve">
<style type="text/css">
	.st0{fill:#667278;}
	.st1{fill:#19988B;}
	.st2{fill:#426CA9;}
	.st3{fill:#9C6268;}
</style>
<g>
	<path class="st0" d="M552.6,540.9h-10.4c-9.9,0-16-6.1-16-17v-39.2h-12.3v40.6c0,11.8-4.7,15.6-11.3,15.6c-8.5,0-15.1-6.1-15.1-17
		v-39.2h-12.3v40.6c0,11.8-4.7,15.6-16.5,15.6c-12.7,0-19.3-4.7-19.3-17v-39.2h-12.3v40.6c0,11.8-4.7,15.6-12.3,15.6
		c-11.3,0-17.5-7.1-17.5-19.3v-36.8h-12.3v40.6c0,11.8-4.7,15.6-16.5,15.6c-12.3,0-18.9-5.2-18.9-17v-39.2h-12.3V538
		c0,17-5.2,24.5-16.5,24.5c-4.7,0-9.9-1.4-14.2-3.3l-1.4,2.4c6.1,4.2,14.2,7.1,21.7,7.1c9.4,0,22.2-5.7,22.2-28.3v-0.5
		c3.8,5.7,9.9,8,21.7,8c12.3,0,21.2-3.8,24.5-11.8c2.8,8,9.4,11.8,21.2,11.8c9.4,0,17.5-3.8,20.8-11.8c2.8,8.5,9.4,11.8,23.6,11.8
		c12.3,0,21.2-3.8,24.5-11.8c1.9,6.6,9,11.8,18.4,11.8c9,0,17-3.8,20.3-11.8c1.9,7.5,9.9,11.8,19.8,11.8h20.3v-63.2h-12.3
		L552.6,540.9L552.6,540.9L552.6,540.9z M433.2,479.1c4.2,0,7.5-3.3,7.5-7.5c0-4.2-3.3-7.5-7.5-7.5c-4.2,0-7.5,3.3-7.5,7.5
		C425.7,475.8,429.5,479.1,433.2,479.1L433.2,479.1z M400.7,478.6c4.2,0,7.5-3.3,7.5-7.5c0-4.2-3.3-7.5-7.5-7.5
		c-4.2,0-7.5,3.3-7.5,7.5C393.1,475.3,396.4,478.6,400.7,478.6L400.7,478.6z M382.3,478.6c4.2,0,7.5-3.3,7.5-7.5
		c0-4.2-3.3-7.5-7.5-7.5c-4.2,0-7.5,3.3-7.5,7.5C374.7,475.3,378,478.6,382.3,478.6L382.3,478.6z M825.3,493.7
		c-10.4-9-26.9-11.8-46.2-8l1.4,7.5h0.5c-5.2,0.5-9.9,2.8-13.7,7.1c-5.2,5.2-8,12.3-8,19.8c0,8,3.8,15.6,9.4,21.2h-22.6V521
		c0-21.7-12.7-35.9-32.1-35.9c-17.9,0-33,13.2-33,32.1c0,9.4,5.7,31.1,40.6,31.1h12.3v0.5c-0.5,11.3-6.1,16-19.8,16
		c-6.1,0-13.7-1.4-18.9-3.8l-0.9,1.9c8.5,4.7,17.9,7.5,25.9,7.5c11.8,0,24.1-2.8,25.9-22.2v-0.5H839v-24.1
		C837.6,510.7,833.3,500.3,825.3,493.7L825.3,493.7z M732.8,540.4h-10.4h-0.9c-9.4,0-16.5-2.4-21.2-7.1c-4.2-4.2-6.1-9.9-6.1-17.5
		c0-15.6,7.1-25,18.9-25c12.7,0,19.8,9.9,19.8,29.3V540.4z M783.8,498.9c8.5,0,12.3,6.1,12.3,20.3c0,14.2-3.8,20.8-12.3,20.8
		c-8.5,0-12.3-6.6-12.3-20.8C771.5,505,775.3,498.9,783.8,498.9z M825.3,540.4h-25.5c6.1-5.2,9.4-13.2,9.4-21.2
		c0-7.1-2.8-14.2-8-19.8c-4.7-4.7-10.4-7.1-17.5-7.1v-0.9c13.7-1.9,24.1,0.9,31.1,7.1c6.6,6.1,9.9,15.1,9.9,26.9v15.1H825.3z
		 M634.2,484.2c-19.3,0-32.1,14.2-32.1,35.9v20.3h-0.5c-13.7,0.5-20.3,6.6-20.3,18.9v18.4h12.3v-15.1c0-10.9,4.2-15.6,14.2-15.6H630
		c22.2,0,37.3-11.8,37.3-31.1C667.3,497.5,652.2,484.2,634.2,484.2z M628.6,540.4h-14.2v-20.3c0-19.3,7.1-29.3,19.8-29.3
		c11.8,0,18.9,9.4,18.9,25C653.1,531.4,644.1,540.4,628.6,540.4z"/>
	<path class="st1" d="M222.3,522.5v-2.8h8l2.8-2.8h-10.9V514H236l2.8-2.8h-16v-2.8h18.9l2.8-2.8h-21.7v-2.8h24.5l2.8-2.8h-27.4V497
		h29.7l2.8-2.8h-32.6v-2.8h35.4l5.7-5.7h-4.7v-2.8h8l2.8-2.8h-11.3v-2.8h13.2l2.8-2.8h-16v-2.8h16.5l-2.8-2.8h-13.7v-1.4h10.9
		l-2.8-2.8h-8v-2.8h5.7l-2.8-2.8h-2.8v-2.8l-2.8-2.8V489H253v-35.9h2.8l-2.8-2.8h-30.7v-2.8h27.4l-2.8-2.8h-25v-2.8h22.6l-2.8-2.8
		h-19.3v-2.8h16.5l-2.8-2.8h-14.2v-2.8h11.3l-2.8-2.8h-8.5v-2.8h5.7l-0.9-0.9c-1.9-1.9-4.7-1.9-6.1,0l0,0l-1.4,1.4v26.9h-2.8v-22.6
		l-2.8,2.8v21.2h-2.8v-18.4l-2.8,2.8v15.6h-2.8v-12.7l-2.8,2.8V454h-2.8v-7.5l-2.8,2.8v4.7h-2.8v-1.9l-4.7,4.7h32.6v2.8H186
		l-3.3,3.3v22.6l5.7,5.7v-1.4h2.8v4.2l2.8,2.8v-7.1h3.3v9.9l2.8,2.8v-12.7h2.8V505l2.8,2.8v-17.9h2.8v20.8l2.8,2.8v-23.6h2.8v26.4
		l2.8,2.8v-28.8h2.8v32.1l4.7,4.7l3.3-3.3h-5.7V522.5z M247.3,453.6h2.8v35.9h-2.8V453.6L247.3,453.6z M241.7,453.6h2.8v35.9h-2.8
		V453.6z M236.5,453.6h2.8v35.9h-2.8V453.6z M230.8,453.6h2.8v35.9h-2.8V453.6L230.8,453.6z M225.2,453.6h2.8v35.9h-2.8V453.6z
		 M222.3,486.6h-35.9v-2.8h35.9V486.6L222.3,486.6z M222.3,480.9h-35.9v-2.8h35.9V480.9L222.3,480.9z M222.3,475.3h-35.9v-2.8h35.9
		V475.3L222.3,475.3z M222.3,470.1h-35.9v-2.8h35.9V470.1L222.3,470.1z M222.3,464.4h-35.9v-2.8h35.9V464.4L222.3,464.4z
		 M180.8,465.8v16.5l-2.8-2.8v-10.9C178,468.2,180.8,465.8,180.8,465.8z M175.2,471v5.7l-2.8-2.8l0,0L175.2,471z"/>
	<path class="st2" d="M276.1,501.2c-8,0-14.6,6.6-14.6,14.6c0,8,6.6,14.6,14.6,14.6c4.2,0,8.5-1.9,11.3-5.7v-18.4
		C284.6,503.6,280.4,501.2,276.1,501.2 M244.5,530.5c8,0,14.6-6.6,14.6-14.6c0-6.6-4.7-12.3-10.9-14.2l-17.9,17.9
		C231.8,526.2,237.9,530.5,244.5,530.5 M276.1,499.3c4.2,0,8.5-1.9,11.3-5.7v-8.5l-11.3-11.3L262,488
		C263.4,494.6,269,499.3,276.1,499.3 M276.1,532.8c-8,0-14.6,6.6-14.6,14.6c0,0.5,0,0.5,0,0.9h25.9v-9.9
		C284.6,535.2,280.4,532.8,276.1,532.8 M244.5,532.8c-8,0-14.6,6.6-14.6,14.6c0,0.5,0,0.5,0,0.9h29.3c0.5-8-5.7-15.1-13.7-15.6
		C245,532.8,244.5,532.8,244.5,532.8 M216.7,533.3l-15.1,15.1h25.9C228,541.3,223.3,535.2,216.7,533.3"/>
	<path class="st3" d="M161,548.4h22.2l-21.7-21.7v21.7H161z M172.3,473.9l-10.9,10.9l51.9,51.9l10.9-10.9L172.3,473.9L172.3,473.9z
		 M208.2,541.8L161,494.6v21.7l31.6,31.6h8.5C201.6,548.4,208.2,541.8,208.2,541.8z"/>
</g>
</svg>
