<svg id="Iconly_Bulk_Search" data-name="Iconly/Bulk/Search" xmlns="http://www.w3.org/2000/svg" width="22.663" height="22.663" viewBox="0 0 22.663 22.663">
  <g id="Iconly_Light-outline_Search" data-name="Iconly/Light-outline/Search">
    <g id="Search">
      <path id="Search-2" data-name="Search" d="M21.326,22.5l-.094-.08-3.544-3.456a10.993,10.993,0,0,1-6.8,2.334A10.785,10.785,0,0,1,0,10.651,10.786,10.786,0,0,1,10.891,0,10.786,10.786,0,0,1,21.783,10.651a10.482,10.482,0,0,1-2.868,7.195l3.5,3.416a.809.809,0,0,1,0,1.161.854.854,0,0,1-1.092.081ZM1.678,10.651a9.124,9.124,0,0,0,9.213,9.01,9.124,9.124,0,0,0,9.214-9.01,9.124,9.124,0,0,0-9.214-9.01A9.124,9.124,0,0,0,1.678,10.651Z" fill="#200e32"/>
    </g>
  </g>
</svg>
